<mxfile host="app.diagrams.net" agent="Mozilla/5.0 (X11; Ubuntu; Linux x86_64; rv:130.0) Gecko/20100101 Firefox/130.0" version="24.7.17">
  <diagram name="Page-1" id="lwDeEY2JYYdrH5nlkBoJ">
    <mxGraphModel dx="2314" dy="2480" grid="1" gridSize="10" guides="1" tooltips="1" connect="1" arrows="1" fold="1" page="1" pageScale="1" pageWidth="850" pageHeight="1100" math="0" shadow="0">
      <root>
        <mxCell id="0" />
        <mxCell id="1" parent="0" />
        <mxCell id="Ixt7KDWkkDkSaDbi-yvk-2" style="edgeStyle=orthogonalEdgeStyle;rounded=0;orthogonalLoop=1;jettySize=auto;html=1;exitX=0.5;exitY=1;exitDx=0;exitDy=0;entryX=0.5;entryY=0;entryDx=0;entryDy=0;" edge="1" parent="1" source="1TiUZI-1H1YMYdZX2LC2-1" target="1TiUZI-1H1YMYdZX2LC2-10">
          <mxGeometry relative="1" as="geometry">
            <Array as="points">
              <mxPoint x="290" y="170" />
            </Array>
          </mxGeometry>
        </mxCell>
        <mxCell id="1TiUZI-1H1YMYdZX2LC2-1" value="Authenticator" style="rounded=1;whiteSpace=wrap;html=1;" parent="1" vertex="1">
          <mxGeometry x="10" y="110" width="120" height="60" as="geometry" />
        </mxCell>
        <mxCell id="1TiUZI-1H1YMYdZX2LC2-38" style="edgeStyle=orthogonalEdgeStyle;rounded=0;orthogonalLoop=1;jettySize=auto;html=1;exitX=1;exitY=0.5;exitDx=0;exitDy=0;entryX=0;entryY=0.5;entryDx=0;entryDy=0;" parent="1" source="1TiUZI-1H1YMYdZX2LC2-2" target="1TiUZI-1H1YMYdZX2LC2-25" edge="1">
          <mxGeometry relative="1" as="geometry">
            <Array as="points">
              <mxPoint x="1200" y="140" />
              <mxPoint x="1200" y="240" />
            </Array>
          </mxGeometry>
        </mxCell>
        <mxCell id="1TiUZI-1H1YMYdZX2LC2-39" style="edgeStyle=orthogonalEdgeStyle;rounded=0;orthogonalLoop=1;jettySize=auto;html=1;exitX=1;exitY=0.5;exitDx=0;exitDy=0;entryX=0;entryY=0.5;entryDx=0;entryDy=0;" parent="1" source="1TiUZI-1H1YMYdZX2LC2-2" target="1TiUZI-1H1YMYdZX2LC2-36" edge="1">
          <mxGeometry relative="1" as="geometry">
            <Array as="points">
              <mxPoint x="1200" y="140" />
              <mxPoint x="1200" y="180" />
            </Array>
          </mxGeometry>
        </mxCell>
        <mxCell id="1TiUZI-1H1YMYdZX2LC2-40" style="edgeStyle=orthogonalEdgeStyle;rounded=0;orthogonalLoop=1;jettySize=auto;html=1;exitX=1;exitY=0.5;exitDx=0;exitDy=0;entryX=0;entryY=0.5;entryDx=0;entryDy=0;" parent="1" source="1TiUZI-1H1YMYdZX2LC2-2" target="1TiUZI-1H1YMYdZX2LC2-35" edge="1">
          <mxGeometry relative="1" as="geometry">
            <Array as="points">
              <mxPoint x="1200" y="140" />
              <mxPoint x="1200" y="120" />
            </Array>
          </mxGeometry>
        </mxCell>
        <mxCell id="1TiUZI-1H1YMYdZX2LC2-41" style="edgeStyle=orthogonalEdgeStyle;rounded=0;orthogonalLoop=1;jettySize=auto;html=1;exitX=1;exitY=0.5;exitDx=0;exitDy=0;entryX=0;entryY=0.5;entryDx=0;entryDy=0;" parent="1" source="1TiUZI-1H1YMYdZX2LC2-2" target="1TiUZI-1H1YMYdZX2LC2-34" edge="1">
          <mxGeometry relative="1" as="geometry">
            <Array as="points">
              <mxPoint x="1200" y="140" />
              <mxPoint x="1200" y="60" />
            </Array>
          </mxGeometry>
        </mxCell>
        <mxCell id="1TiUZI-1H1YMYdZX2LC2-42" style="edgeStyle=orthogonalEdgeStyle;rounded=0;orthogonalLoop=1;jettySize=auto;html=1;exitX=1;exitY=0.5;exitDx=0;exitDy=0;entryX=0;entryY=0.5;entryDx=0;entryDy=0;" parent="1" source="1TiUZI-1H1YMYdZX2LC2-2" target="1TiUZI-1H1YMYdZX2LC2-33" edge="1">
          <mxGeometry relative="1" as="geometry">
            <Array as="points">
              <mxPoint x="1200" y="140" />
              <mxPoint x="1200" />
            </Array>
          </mxGeometry>
        </mxCell>
        <mxCell id="1TiUZI-1H1YMYdZX2LC2-43" style="edgeStyle=orthogonalEdgeStyle;rounded=0;orthogonalLoop=1;jettySize=auto;html=1;exitX=1;exitY=0.5;exitDx=0;exitDy=0;entryX=0.5;entryY=1;entryDx=0;entryDy=0;" parent="1" source="1TiUZI-1H1YMYdZX2LC2-2" target="1TiUZI-1H1YMYdZX2LC2-32" edge="1">
          <mxGeometry relative="1" as="geometry">
            <Array as="points">
              <mxPoint x="1200" y="140" />
              <mxPoint x="1200" />
              <mxPoint x="1300" />
            </Array>
          </mxGeometry>
        </mxCell>
        <mxCell id="1TiUZI-1H1YMYdZX2LC2-44" style="edgeStyle=orthogonalEdgeStyle;rounded=0;orthogonalLoop=1;jettySize=auto;html=1;exitX=1;exitY=0.5;exitDx=0;exitDy=0;entryX=0.5;entryY=1;entryDx=0;entryDy=0;" parent="1" source="1TiUZI-1H1YMYdZX2LC2-2" target="1TiUZI-1H1YMYdZX2LC2-31" edge="1">
          <mxGeometry relative="1" as="geometry" />
        </mxCell>
        <mxCell id="1TiUZI-1H1YMYdZX2LC2-45" style="edgeStyle=orthogonalEdgeStyle;rounded=0;orthogonalLoop=1;jettySize=auto;html=1;exitX=1;exitY=0.5;exitDx=0;exitDy=0;entryX=0.5;entryY=1;entryDx=0;entryDy=0;" parent="1" source="1TiUZI-1H1YMYdZX2LC2-2" target="1TiUZI-1H1YMYdZX2LC2-30" edge="1">
          <mxGeometry relative="1" as="geometry" />
        </mxCell>
        <mxCell id="1TiUZI-1H1YMYdZX2LC2-46" style="edgeStyle=orthogonalEdgeStyle;rounded=0;orthogonalLoop=1;jettySize=auto;html=1;exitX=1;exitY=0.5;exitDx=0;exitDy=0;entryX=0.5;entryY=1;entryDx=0;entryDy=0;" parent="1" source="1TiUZI-1H1YMYdZX2LC2-2" target="1TiUZI-1H1YMYdZX2LC2-27" edge="1">
          <mxGeometry relative="1" as="geometry" />
        </mxCell>
        <mxCell id="1TiUZI-1H1YMYdZX2LC2-47" style="edgeStyle=orthogonalEdgeStyle;rounded=0;orthogonalLoop=1;jettySize=auto;html=1;exitX=1;exitY=0.5;exitDx=0;exitDy=0;entryX=0.5;entryY=1;entryDx=0;entryDy=0;" parent="1" source="1TiUZI-1H1YMYdZX2LC2-2" target="1TiUZI-1H1YMYdZX2LC2-29" edge="1">
          <mxGeometry relative="1" as="geometry" />
        </mxCell>
        <mxCell id="1TiUZI-1H1YMYdZX2LC2-48" style="edgeStyle=orthogonalEdgeStyle;rounded=0;orthogonalLoop=1;jettySize=auto;html=1;exitX=1;exitY=0.5;exitDx=0;exitDy=0;entryX=0.5;entryY=0;entryDx=0;entryDy=0;" parent="1" source="1TiUZI-1H1YMYdZX2LC2-2" target="1TiUZI-1H1YMYdZX2LC2-26" edge="1">
          <mxGeometry relative="1" as="geometry" />
        </mxCell>
        <mxCell id="1TiUZI-1H1YMYdZX2LC2-78" style="edgeStyle=orthogonalEdgeStyle;rounded=0;orthogonalLoop=1;jettySize=auto;html=1;exitX=0.5;exitY=1;exitDx=0;exitDy=0;entryX=0.5;entryY=0;entryDx=0;entryDy=0;" parent="1" source="1TiUZI-1H1YMYdZX2LC2-2" target="1TiUZI-1H1YMYdZX2LC2-77" edge="1">
          <mxGeometry relative="1" as="geometry" />
        </mxCell>
        <mxCell id="1TiUZI-1H1YMYdZX2LC2-2" value="&lt;div&gt;Akun Peminjam&lt;/div&gt;" style="rounded=1;whiteSpace=wrap;html=1;" parent="1" vertex="1">
          <mxGeometry x="690" y="110" width="130" height="60" as="geometry" />
        </mxCell>
        <mxCell id="1TiUZI-1H1YMYdZX2LC2-68" style="edgeStyle=orthogonalEdgeStyle;rounded=0;orthogonalLoop=1;jettySize=auto;html=1;exitX=0.5;exitY=1;exitDx=0;exitDy=0;entryX=0.5;entryY=0;entryDx=0;entryDy=0;" parent="1" source="1TiUZI-1H1YMYdZX2LC2-3" target="1TiUZI-1H1YMYdZX2LC2-60" edge="1">
          <mxGeometry relative="1" as="geometry">
            <Array as="points">
              <mxPoint x="755" y="540" />
              <mxPoint x="810" y="540" />
            </Array>
          </mxGeometry>
        </mxCell>
        <mxCell id="1TiUZI-1H1YMYdZX2LC2-69" style="edgeStyle=orthogonalEdgeStyle;rounded=0;orthogonalLoop=1;jettySize=auto;html=1;exitX=0.5;exitY=1;exitDx=0;exitDy=0;entryX=0.5;entryY=0;entryDx=0;entryDy=0;" parent="1" source="1TiUZI-1H1YMYdZX2LC2-3" target="1TiUZI-1H1YMYdZX2LC2-61" edge="1">
          <mxGeometry relative="1" as="geometry">
            <Array as="points">
              <mxPoint x="755" y="540" />
              <mxPoint x="910" y="540" />
            </Array>
          </mxGeometry>
        </mxCell>
        <mxCell id="1TiUZI-1H1YMYdZX2LC2-70" style="edgeStyle=orthogonalEdgeStyle;rounded=0;orthogonalLoop=1;jettySize=auto;html=1;exitX=0.5;exitY=1;exitDx=0;exitDy=0;entryX=0.5;entryY=0;entryDx=0;entryDy=0;" parent="1" source="1TiUZI-1H1YMYdZX2LC2-3" target="1TiUZI-1H1YMYdZX2LC2-62" edge="1">
          <mxGeometry relative="1" as="geometry">
            <Array as="points">
              <mxPoint x="755" y="540" />
              <mxPoint x="1020" y="540" />
            </Array>
          </mxGeometry>
        </mxCell>
        <mxCell id="1TiUZI-1H1YMYdZX2LC2-71" style="edgeStyle=orthogonalEdgeStyle;rounded=0;orthogonalLoop=1;jettySize=auto;html=1;exitX=0.5;exitY=1;exitDx=0;exitDy=0;entryX=0.5;entryY=0;entryDx=0;entryDy=0;" parent="1" source="1TiUZI-1H1YMYdZX2LC2-3" target="1TiUZI-1H1YMYdZX2LC2-63" edge="1">
          <mxGeometry relative="1" as="geometry">
            <Array as="points">
              <mxPoint x="755" y="540" />
              <mxPoint x="1120" y="540" />
            </Array>
          </mxGeometry>
        </mxCell>
        <mxCell id="1TiUZI-1H1YMYdZX2LC2-72" style="edgeStyle=orthogonalEdgeStyle;rounded=0;orthogonalLoop=1;jettySize=auto;html=1;exitX=0.5;exitY=1;exitDx=0;exitDy=0;entryX=0.5;entryY=0;entryDx=0;entryDy=0;" parent="1" source="1TiUZI-1H1YMYdZX2LC2-3" target="1TiUZI-1H1YMYdZX2LC2-64" edge="1">
          <mxGeometry relative="1" as="geometry">
            <Array as="points">
              <mxPoint x="755" y="540" />
              <mxPoint x="1220" y="540" />
            </Array>
          </mxGeometry>
        </mxCell>
        <mxCell id="1TiUZI-1H1YMYdZX2LC2-73" style="edgeStyle=orthogonalEdgeStyle;rounded=0;orthogonalLoop=1;jettySize=auto;html=1;exitX=0.5;exitY=1;exitDx=0;exitDy=0;entryX=0;entryY=0.5;entryDx=0;entryDy=0;" parent="1" source="1TiUZI-1H1YMYdZX2LC2-3" target="1TiUZI-1H1YMYdZX2LC2-59" edge="1">
          <mxGeometry relative="1" as="geometry">
            <Array as="points">
              <mxPoint x="755" y="540" />
              <mxPoint x="1295" y="540" />
            </Array>
          </mxGeometry>
        </mxCell>
        <mxCell id="1TiUZI-1H1YMYdZX2LC2-74" style="edgeStyle=orthogonalEdgeStyle;rounded=0;orthogonalLoop=1;jettySize=auto;html=1;exitX=1;exitY=0.5;exitDx=0;exitDy=0;entryX=0;entryY=0.5;entryDx=0;entryDy=0;" parent="1" source="1TiUZI-1H1YMYdZX2LC2-3" target="1TiUZI-1H1YMYdZX2LC2-67" edge="1">
          <mxGeometry relative="1" as="geometry" />
        </mxCell>
        <mxCell id="1TiUZI-1H1YMYdZX2LC2-75" style="edgeStyle=orthogonalEdgeStyle;rounded=0;orthogonalLoop=1;jettySize=auto;html=1;exitX=1;exitY=0.5;exitDx=0;exitDy=0;entryX=0;entryY=0.5;entryDx=0;entryDy=0;" parent="1" source="1TiUZI-1H1YMYdZX2LC2-3" target="1TiUZI-1H1YMYdZX2LC2-66" edge="1">
          <mxGeometry relative="1" as="geometry">
            <Array as="points">
              <mxPoint x="1060" y="470" />
              <mxPoint x="1060" y="410" />
            </Array>
          </mxGeometry>
        </mxCell>
        <mxCell id="1TiUZI-1H1YMYdZX2LC2-76" style="edgeStyle=orthogonalEdgeStyle;rounded=0;orthogonalLoop=1;jettySize=auto;html=1;exitX=1;exitY=0.5;exitDx=0;exitDy=0;entryX=0;entryY=0.5;entryDx=0;entryDy=0;" parent="1" source="1TiUZI-1H1YMYdZX2LC2-3" target="1TiUZI-1H1YMYdZX2LC2-65" edge="1">
          <mxGeometry relative="1" as="geometry">
            <Array as="points">
              <mxPoint x="1060" y="470" />
              <mxPoint x="1060" y="350" />
            </Array>
          </mxGeometry>
        </mxCell>
        <mxCell id="1TiUZI-1H1YMYdZX2LC2-3" value="&lt;div&gt;Akun Pemberi Pinjaman&lt;br&gt;&lt;/div&gt;" style="rounded=1;whiteSpace=wrap;html=1;" parent="1" vertex="1">
          <mxGeometry x="670" y="440" width="170" height="60" as="geometry" />
        </mxCell>
        <mxCell id="1TiUZI-1H1YMYdZX2LC2-4" value="PK:UID" style="ellipse;whiteSpace=wrap;html=1;" parent="1" vertex="1">
          <mxGeometry x="40" y="210" width="60" height="40" as="geometry" />
        </mxCell>
        <mxCell id="1TiUZI-1H1YMYdZX2LC2-5" value="" style="endArrow=none;html=1;rounded=0;exitX=0.5;exitY=0;exitDx=0;exitDy=0;entryX=0.5;entryY=1;entryDx=0;entryDy=0;" parent="1" source="1TiUZI-1H1YMYdZX2LC2-4" target="1TiUZI-1H1YMYdZX2LC2-1" edge="1">
          <mxGeometry width="50" height="50" relative="1" as="geometry">
            <mxPoint x="250" y="230" as="sourcePoint" />
            <mxPoint x="300" y="180" as="targetPoint" />
          </mxGeometry>
        </mxCell>
        <mxCell id="1TiUZI-1H1YMYdZX2LC2-6" value="real_name" style="ellipse;whiteSpace=wrap;html=1;" parent="1" vertex="1">
          <mxGeometry x="110" y="205" width="100" height="50" as="geometry" />
        </mxCell>
        <mxCell id="1TiUZI-1H1YMYdZX2LC2-7" value="" style="endArrow=none;html=1;rounded=0;entryX=0.5;entryY=0;entryDx=0;entryDy=0;" parent="1" target="1TiUZI-1H1YMYdZX2LC2-6" edge="1">
          <mxGeometry width="50" height="50" relative="1" as="geometry">
            <mxPoint x="70" y="170" as="sourcePoint" />
            <mxPoint x="300" y="180" as="targetPoint" />
            <Array as="points">
              <mxPoint x="160" y="170" />
            </Array>
          </mxGeometry>
        </mxCell>
        <mxCell id="1TiUZI-1H1YMYdZX2LC2-8" value="role" style="ellipse;whiteSpace=wrap;html=1;" parent="1" vertex="1">
          <mxGeometry x="40" y="280" width="100" height="50" as="geometry" />
        </mxCell>
        <mxCell id="1TiUZI-1H1YMYdZX2LC2-9" value="" style="endArrow=none;html=1;rounded=0;entryX=0;entryY=0.5;entryDx=0;entryDy=0;exitX=0.5;exitY=1;exitDx=0;exitDy=0;" parent="1" source="1TiUZI-1H1YMYdZX2LC2-1" target="1TiUZI-1H1YMYdZX2LC2-8" edge="1">
          <mxGeometry width="50" height="50" relative="1" as="geometry">
            <mxPoint x="180" y="170" as="sourcePoint" />
            <mxPoint x="410" y="180" as="targetPoint" />
            <Array as="points">
              <mxPoint x="20" y="170" />
              <mxPoint x="20" y="305" />
            </Array>
          </mxGeometry>
        </mxCell>
        <mxCell id="1TiUZI-1H1YMYdZX2LC2-10" value="email" style="ellipse;whiteSpace=wrap;html=1;" parent="1" vertex="1">
          <mxGeometry x="240" y="200" width="100" height="50" as="geometry" />
        </mxCell>
        <mxCell id="1TiUZI-1H1YMYdZX2LC2-12" value="Login With Google" style="rhombus;whiteSpace=wrap;html=1;" parent="1" vertex="1">
          <mxGeometry x="300" y="100" width="130" height="80" as="geometry" />
        </mxCell>
        <mxCell id="1TiUZI-1H1YMYdZX2LC2-13" value="" style="endArrow=none;html=1;rounded=0;exitX=1;exitY=0.5;exitDx=0;exitDy=0;entryX=0;entryY=0.5;entryDx=0;entryDy=0;" parent="1" source="1TiUZI-1H1YMYdZX2LC2-1" target="1TiUZI-1H1YMYdZX2LC2-12" edge="1">
          <mxGeometry width="50" height="50" relative="1" as="geometry">
            <mxPoint x="360" y="250" as="sourcePoint" />
            <mxPoint x="410" y="200" as="targetPoint" />
          </mxGeometry>
        </mxCell>
        <mxCell id="1TiUZI-1H1YMYdZX2LC2-14" value="" style="endArrow=none;html=1;rounded=0;exitX=1;exitY=0.5;exitDx=0;exitDy=0;entryX=0;entryY=0.5;entryDx=0;entryDy=0;" parent="1" source="1TiUZI-1H1YMYdZX2LC2-12" target="1TiUZI-1H1YMYdZX2LC2-2" edge="1">
          <mxGeometry width="50" height="50" relative="1" as="geometry">
            <mxPoint x="460" y="310" as="sourcePoint" />
            <mxPoint x="510" y="260" as="targetPoint" />
          </mxGeometry>
        </mxCell>
        <mxCell id="1TiUZI-1H1YMYdZX2LC2-15" value="" style="endArrow=none;html=1;rounded=0;exitX=0.5;exitY=1;exitDx=0;exitDy=0;entryX=0;entryY=0.5;entryDx=0;entryDy=0;" parent="1" source="1TiUZI-1H1YMYdZX2LC2-12" target="1TiUZI-1H1YMYdZX2LC2-3" edge="1">
          <mxGeometry width="50" height="50" relative="1" as="geometry">
            <mxPoint x="440" y="390" as="sourcePoint" />
            <mxPoint x="490" y="340" as="targetPoint" />
            <Array as="points">
              <mxPoint x="365" y="470" />
            </Array>
          </mxGeometry>
        </mxCell>
        <mxCell id="1TiUZI-1H1YMYdZX2LC2-17" value="PK: ID" style="ellipse;whiteSpace=wrap;html=1;" parent="1" vertex="1">
          <mxGeometry x="620" y="10" width="70" height="40" as="geometry" />
        </mxCell>
        <mxCell id="1TiUZI-1H1YMYdZX2LC2-18" value="" style="endArrow=none;html=1;rounded=0;entryX=0.5;entryY=1;entryDx=0;entryDy=0;exitX=0.5;exitY=0;exitDx=0;exitDy=0;" parent="1" source="1TiUZI-1H1YMYdZX2LC2-2" target="1TiUZI-1H1YMYdZX2LC2-17" edge="1">
          <mxGeometry width="50" height="50" relative="1" as="geometry">
            <mxPoint x="540" y="110" as="sourcePoint" />
            <mxPoint x="590" y="60" as="targetPoint" />
            <Array as="points">
              <mxPoint x="755" y="80" />
              <mxPoint x="655" y="80" />
            </Array>
          </mxGeometry>
        </mxCell>
        <mxCell id="1TiUZI-1H1YMYdZX2LC2-19" value="PK: ID" style="ellipse;whiteSpace=wrap;html=1;" parent="1" vertex="1">
          <mxGeometry x="570" y="570" width="70" height="40" as="geometry" />
        </mxCell>
        <mxCell id="1TiUZI-1H1YMYdZX2LC2-20" value="" style="endArrow=none;html=1;rounded=0;exitX=0.5;exitY=1;exitDx=0;exitDy=0;entryX=0.5;entryY=0;entryDx=0;entryDy=0;" parent="1" source="1TiUZI-1H1YMYdZX2LC2-3" target="1TiUZI-1H1YMYdZX2LC2-19" edge="1">
          <mxGeometry width="50" height="50" relative="1" as="geometry">
            <mxPoint x="787.5" y="580" as="sourcePoint" />
            <mxPoint x="730" y="680" as="targetPoint" />
            <Array as="points">
              <mxPoint x="755" y="540" />
              <mxPoint x="605" y="540" />
            </Array>
          </mxGeometry>
        </mxCell>
        <mxCell id="1TiUZI-1H1YMYdZX2LC2-21" value="FK: UID" style="ellipse;whiteSpace=wrap;html=1;" parent="1" vertex="1">
          <mxGeometry x="660" y="570" width="80" height="40" as="geometry" />
        </mxCell>
        <mxCell id="1TiUZI-1H1YMYdZX2LC2-22" value="" style="endArrow=none;html=1;rounded=0;entryX=0.5;entryY=1;entryDx=0;entryDy=0;exitX=0.5;exitY=0;exitDx=0;exitDy=0;" parent="1" source="1TiUZI-1H1YMYdZX2LC2-21" target="1TiUZI-1H1YMYdZX2LC2-3" edge="1">
          <mxGeometry width="50" height="50" relative="1" as="geometry">
            <mxPoint x="710" y="560" as="sourcePoint" />
            <mxPoint x="670" y="600" as="targetPoint" />
            <Array as="points">
              <mxPoint x="700" y="540" />
              <mxPoint x="755" y="540" />
            </Array>
          </mxGeometry>
        </mxCell>
        <mxCell id="1TiUZI-1H1YMYdZX2LC2-23" value="FK: UID" style="ellipse;whiteSpace=wrap;html=1;" parent="1" vertex="1">
          <mxGeometry x="700" y="10" width="80" height="40" as="geometry" />
        </mxCell>
        <mxCell id="1TiUZI-1H1YMYdZX2LC2-24" value="" style="endArrow=none;html=1;rounded=0;exitX=0.5;exitY=0;exitDx=0;exitDy=0;entryX=0.5;entryY=1;entryDx=0;entryDy=0;" parent="1" source="1TiUZI-1H1YMYdZX2LC2-2" target="1TiUZI-1H1YMYdZX2LC2-23" edge="1">
          <mxGeometry width="50" height="50" relative="1" as="geometry">
            <mxPoint x="720" y="110" as="sourcePoint" />
            <mxPoint x="770" y="60" as="targetPoint" />
            <Array as="points">
              <mxPoint x="755" y="80" />
              <mxPoint x="740" y="80" />
            </Array>
          </mxGeometry>
        </mxCell>
        <mxCell id="1TiUZI-1H1YMYdZX2LC2-25" value="created_at" style="ellipse;whiteSpace=wrap;html=1;" parent="1" vertex="1">
          <mxGeometry x="1320" y="220" width="80" height="40" as="geometry" />
        </mxCell>
        <mxCell id="1TiUZI-1H1YMYdZX2LC2-26" value="full_name" style="ellipse;whiteSpace=wrap;html=1;" parent="1" vertex="1">
          <mxGeometry x="860" y="205" width="80" height="40" as="geometry" />
        </mxCell>
        <mxCell id="1TiUZI-1H1YMYdZX2LC2-27" value="address" style="ellipse;whiteSpace=wrap;html=1;" parent="1" vertex="1">
          <mxGeometry x="960" y="-120" width="80" height="40" as="geometry" />
        </mxCell>
        <mxCell id="1TiUZI-1H1YMYdZX2LC2-29" value="&lt;div&gt;email&lt;/div&gt;" style="ellipse;whiteSpace=wrap;html=1;" parent="1" vertex="1">
          <mxGeometry x="860" y="-120" width="80" height="40" as="geometry" />
        </mxCell>
        <mxCell id="1TiUZI-1H1YMYdZX2LC2-30" value="birth_date" style="ellipse;whiteSpace=wrap;html=1;" parent="1" vertex="1">
          <mxGeometry x="1060" y="-120" width="80" height="40" as="geometry" />
        </mxCell>
        <mxCell id="1TiUZI-1H1YMYdZX2LC2-31" value="role" style="ellipse;whiteSpace=wrap;html=1;" parent="1" vertex="1">
          <mxGeometry x="1160" y="-120" width="80" height="40" as="geometry" />
        </mxCell>
        <mxCell id="1TiUZI-1H1YMYdZX2LC2-32" value="debt_count" style="ellipse;whiteSpace=wrap;html=1;" parent="1" vertex="1">
          <mxGeometry x="1260" y="-120" width="80" height="40" as="geometry" />
        </mxCell>
        <mxCell id="1TiUZI-1H1YMYdZX2LC2-33" value="is_in_debt" style="ellipse;whiteSpace=wrap;html=1;" parent="1" vertex="1">
          <mxGeometry x="1320" y="-20" width="80" height="40" as="geometry" />
        </mxCell>
        <mxCell id="1TiUZI-1H1YMYdZX2LC2-34" value="IIDK" style="ellipse;whiteSpace=wrap;html=1;" parent="1" vertex="1">
          <mxGeometry x="1320" y="40" width="80" height="40" as="geometry" />
        </mxCell>
        <mxCell id="1TiUZI-1H1YMYdZX2LC2-35" value="salary_count" style="ellipse;whiteSpace=wrap;html=1;" parent="1" vertex="1">
          <mxGeometry x="1320" y="100" width="80" height="40" as="geometry" />
        </mxCell>
        <mxCell id="1TiUZI-1H1YMYdZX2LC2-36" value="bank_no" style="ellipse;whiteSpace=wrap;html=1;" parent="1" vertex="1">
          <mxGeometry x="1320" y="160" width="80" height="40" as="geometry" />
        </mxCell>
        <mxCell id="1TiUZI-1H1YMYdZX2LC2-59" value="created_at" style="ellipse;whiteSpace=wrap;html=1;" parent="1" vertex="1">
          <mxGeometry x="1295" y="520" width="95" height="40" as="geometry" />
        </mxCell>
        <mxCell id="1TiUZI-1H1YMYdZX2LC2-60" value="full_name" style="ellipse;whiteSpace=wrap;html=1;" parent="1" vertex="1">
          <mxGeometry x="770" y="570" width="80" height="40" as="geometry" />
        </mxCell>
        <mxCell id="1TiUZI-1H1YMYdZX2LC2-61" value="&lt;div&gt;email&lt;/div&gt;" style="ellipse;whiteSpace=wrap;html=1;" parent="1" vertex="1">
          <mxGeometry x="870" y="570" width="80" height="40" as="geometry" />
        </mxCell>
        <mxCell id="1TiUZI-1H1YMYdZX2LC2-62" value="birth_date" style="ellipse;whiteSpace=wrap;html=1;" parent="1" vertex="1">
          <mxGeometry x="980" y="570" width="80" height="40" as="geometry" />
        </mxCell>
        <mxCell id="1TiUZI-1H1YMYdZX2LC2-63" value="role" style="ellipse;whiteSpace=wrap;html=1;" parent="1" vertex="1">
          <mxGeometry x="1080" y="570" width="80" height="40" as="geometry" />
        </mxCell>
        <mxCell id="1TiUZI-1H1YMYdZX2LC2-64" value="invest_count" style="ellipse;whiteSpace=wrap;html=1;" parent="1" vertex="1">
          <mxGeometry x="1180" y="570" width="80" height="40" as="geometry" />
        </mxCell>
        <mxCell id="1TiUZI-1H1YMYdZX2LC2-65" value="is_can_invest" style="ellipse;whiteSpace=wrap;html=1;" parent="1" vertex="1">
          <mxGeometry x="1300" y="330" width="100" height="40" as="geometry" />
        </mxCell>
        <mxCell id="1TiUZI-1H1YMYdZX2LC2-66" value="ICIK" style="ellipse;whiteSpace=wrap;html=1;" parent="1" vertex="1">
          <mxGeometry x="1300" y="390" width="100" height="40" as="geometry" />
        </mxCell>
        <mxCell id="1TiUZI-1H1YMYdZX2LC2-67" value="bank_no" style="ellipse;whiteSpace=wrap;html=1;" parent="1" vertex="1">
          <mxGeometry x="1300" y="450" width="100" height="40" as="geometry" />
        </mxCell>
        <mxCell id="1TiUZI-1H1YMYdZX2LC2-79" style="edgeStyle=orthogonalEdgeStyle;rounded=0;orthogonalLoop=1;jettySize=auto;html=1;exitX=0.5;exitY=1;exitDx=0;exitDy=0;entryX=0.5;entryY=0;entryDx=0;entryDy=0;" parent="1" source="1TiUZI-1H1YMYdZX2LC2-77" target="1TiUZI-1H1YMYdZX2LC2-3" edge="1">
          <mxGeometry relative="1" as="geometry" />
        </mxCell>
        <mxCell id="1TiUZI-1H1YMYdZX2LC2-77" value="Meminjam" style="rhombus;whiteSpace=wrap;html=1;" parent="1" vertex="1">
          <mxGeometry x="715" y="255" width="80" height="80" as="geometry" />
        </mxCell>
        <mxCell id="Ixt7KDWkkDkSaDbi-yvk-7" value="Akun Pemberi Pinjaman" style="rounded=0;whiteSpace=wrap;html=1;" vertex="1" parent="1">
          <mxGeometry x="670" y="440" width="170" height="60" as="geometry" />
        </mxCell>
        <mxCell id="Ixt7KDWkkDkSaDbi-yvk-8" value="Akun Peminjam" style="rounded=0;whiteSpace=wrap;html=1;" vertex="1" parent="1">
          <mxGeometry x="690" y="110" width="130" height="60" as="geometry" />
        </mxCell>
        <mxCell id="Ixt7KDWkkDkSaDbi-yvk-9" value="Authenticator" style="rounded=0;whiteSpace=wrap;html=1;" vertex="1" parent="1">
          <mxGeometry x="10" y="110" width="120" height="60" as="geometry" />
        </mxCell>
      </root>
    </mxGraphModel>
  </diagram>
</mxfile>
